<svg xmlns="http://www.w3.org/2000/svg" viewBox="0 0 64 64" role="img" aria-label="SS monogram">
  <rect width="64" height="64" rx="16" fill="#0b0b0b"/>
  <path d="M9.68 36.12 16.84 35.67Q17.07 37.41 17.78 38.33Q18.95 39.8 21.1 39.8Q22.72 39.8 23.59 39.05Q24.46 38.29 24.46 37.3Q24.46 36.35 23.63 35.6Q22.8 34.86 19.78 34.19Q14.83 33.08 12.72 31.24Q10.6 29.39 10.6 26.54Q10.6 24.66 11.68 22.99Q12.77 21.33 14.95 20.37Q17.14 19.42 20.94 19.42Q25.6 19.42 28.05 21.15Q30.5 22.89 30.97 26.67L23.88 27.09Q23.6 25.44 22.69 24.7Q21.79 23.95 20.19 23.95Q18.88 23.95 18.22 24.5Q17.55 25.06 17.55 25.86Q17.55 26.44 18.1 26.9Q18.63 27.38 20.62 27.8Q25.55 28.86 27.69 29.95Q29.82 31.04 30.79 32.65Q31.76 34.26 31.76 36.25Q31.76 38.59 30.47 40.57Q29.17 42.54 26.85 43.56Q24.52 44.58 20.99 44.58Q14.78 44.58 12.39 42.19Q10 39.8 9.68 36.12ZM32.24 36.12 39.39 35.67Q39.62 37.41 40.34 38.33Q41.5 39.8 43.66 39.8Q45.27 39.8 46.14 39.05Q47.01 38.29 47.01 37.3Q47.01 36.35 46.18 35.6Q45.35 34.86 42.33 34.19Q37.38 33.08 35.27 31.24Q33.15 29.39 33.15 26.54Q33.15 24.66 34.24 22.99Q35.32 21.33 37.51 20.37Q39.69 19.42 43.49 19.42Q48.16 19.42 50.61 21.15Q53.06 22.89 53.52 26.67L46.43 27.09Q46.15 25.44 45.24 24.7Q44.34 23.95 42.75 23.95Q41.43 23.95 40.77 24.5Q40.11 25.06 40.11 25.86Q40.11 26.44 40.65 26.9Q41.19 27.38 43.18 27.8Q48.11 28.86 50.24 29.95Q52.37 31.04 53.35 32.65Q54.32 34.26 54.32 36.25Q54.32 38.59 53.02 40.57Q51.73 42.54 49.4 43.56Q47.08 44.58 43.54 44.58Q37.33 44.58 34.94 42.19Q32.55 39.8 32.24 36.12Z" fill="#f2f2f0"/>
</svg>
